<?xml version="1.0" encoding="UTF-8" standalone="no"?>
<svg width="800" height="600" viewBox="0 0 800 600" xmlns="http://www.w3.org/2000/svg">
  <!-- T-shirt outline -->
  <path d="M400,100 C400,100 300,120 250,150 C200,180 150,240 150,240 L100,180 L150,120 C150,120 250,80 400,50 C550,80 650,120 650,120 L700,180 L650,240 C650,240 600,180 550,150 C500,120 400,100 400,100 Z" fill="#5B7FDE" stroke="#333" stroke-width="3"/>
  
  <!-- T-shirt body -->
  <path d="M250,150 L250,500 C250,530 300,550 400,550 C500,550 550,530 550,500 L550,150 C500,120 400,100 400,100 C400,100 300,120 250,150 Z" fill="#5B7FDE" stroke="#333" stroke-width="3"/>
  
  <!-- T-shirt collar -->
  <path d="M350,120 C350,140 380,160 400,160 C420,160 450,140 450,120 C450,120 420,110 400,110 C380,110 350,120 350,120 Z" fill="#4A6BC7" stroke="#333" stroke-width="2"/>
  
  <!-- T-shirt sleeves -->
  <path d="M250,150 C230,200 180,220 150,240" fill="none" stroke="#333" stroke-width="3"/>
  <path d="M550,150 C570,200 620,220 650,240" fill="none" stroke="#333" stroke-width="3"/>
  
  <!-- Nursing Rocks Logo text -->
  <g transform="translate(400, 280) scale(1.2)">
    <text x="-140" y="0" font-family="Arial, sans-serif" font-weight="bold" font-size="36" fill="#F61D7A" stroke="#222" stroke-width="1">NURSING ROCKS</text>
    <text x="-100" y="40" font-family="Arial, sans-serif" font-weight="bold" font-size="24" fill="#ffffff" stroke="#222" stroke-width="1">CONCERT SERIES</text>
  </g>
  
  <!-- Medical caduceus symbol stylized -->
  <g transform="translate(400, 350) scale(0.7)">
    <circle cx="0" cy="0" r="60" fill="#00A3E0" stroke="#222" stroke-width="2"/>
    <path d="M-10,-40 C-30,-30 -40,-10 -40,10 C-40,40 -25,60 0,60 C25,60 40,40 40,10 C40,-10 30,-30 10,-40" fill="none" stroke="#fff" stroke-width="10"/>
    <path d="M0,-40 L0,60" fill="none" stroke="#fff" stroke-width="10"/>
    <path d="M-30,0 L30,0" fill="none" stroke="#fff" stroke-width="10"/>
  </g>
</svg>